<?xml version="1.0" standalone="no"?>
<!DOCTYPE svg PUBLIC "-//W3C//DTD SVG 20010904//EN"
 "http://www.w3.org/TR/2001/REC-SVG-20010904/DTD/svg10.dtd">
<svg version="1.0" xmlns="http://www.w3.org/2000/svg"
 width="3126.000000pt" height="3126.000000pt" viewBox="0 0 3126.000000 3126.000000"
 preserveAspectRatio="xMidYMid meet">
<metadata>
Created by potrace 1.14, written by Peter Selinger 2001-2017
</metadata>
<g transform="translate(0.000000,3126.000000) scale(0.100000,-0.100000)"
fill="#000000" stroke="none">
<path d="M6795 31249 c-87 -9 -169 -20 -176 -25 -3 -2 -21 -6 -40 -9 -18 -3
-76 -20 -129 -37 -618 -200 -1065 -776 -1117 -1438 -4 -47 -7 -1356 -7 -2910
0 -2290 2 -2838 13 -2892 7 -37 13 -70 12 -73 0 -3 13 -44 30 -92 92 -260 246
-447 477 -577 61 -35 175 -80 230 -91 142 -31 171 -31 9567 -29 5159 0 9396 4
9415 8 79 16 121 27 167 42 310 104 560 375 652 706 27 97 33 143 34 268 2
129 -7 197 -39 307 -43 148 -206 576 -302 793 -11 25 -46 104 -77 175 -57 129
-234 490 -295 601 -18 33 -49 88 -68 124 -182 333 -540 894 -704 1105 -5 6
-46 60 -92 121 -122 163 -303 388 -405 504 -12 14 -34 39 -48 55 -258 297
-614 656 -893 901 -24 21 -52 47 -61 56 -15 14 -357 299 -399 332 -1162 909
-2471 1534 -3880 1851 -63 14 -128 28 -145 31 -16 2 -38 7 -48 10 -11 3 -29 7
-40 8 -12 2 -35 6 -52 9 -16 4 -43 9 -60 12 -16 3 -41 7 -55 10 -14 3 -38 7
-55 10 -16 3 -43 7 -60 10 -55 10 -300 46 -340 50 -22 3 -56 7 -75 10 -19 3
-60 7 -90 10 -30 3 -71 7 -90 9 -19 3 -66 8 -105 11 -38 3 -88 8 -110 10 -45
6 -152 12 -335 21 -163 9 -10126 11 -10205 3z"/>
<path d="M6045 19572 c-299 -28 -575 -268 -662 -577 -20 -71 -20 -73 -28 -145
-4 -36 -8 -3633 -10 -7995 -2 -4362 -5 -7961 -8 -8000 -23 -341 -25 -1321 -2
-1475 2 -14 6 -56 10 -95 8 -90 41 -291 61 -369 66 -263 166 -458 310 -601
152 -152 339 -241 608 -292 84 -16 266 -17 2266 -19 1241 -2 2205 1 2245 6 39
5 90 12 115 15 176 23 386 108 521 211 214 164 368 443 434 789 5 22 9 45 10
50 14 58 43 293 51 400 17 240 20 781 7 1105 -4 96 -8 3172 -10 6835 -2 3663
-4 7292 -6 8065 l-2 1405 -22 77 c-59 207 -176 377 -335 486 -47 32 -165 90
-196 97 -9 2 -39 9 -67 16 -39 9 -620 12 -2655 13 -1433 1 -2618 0 -2635 -2z"/>
<path d="M16772 19568 c-251 -28 -499 -178 -644 -392 -43 -62 -113 -204 -122
-246 -3 -14 -13 -56 -22 -95 -14 -64 -16 -415 -16 -3841 -1 -3057 2 -3781 12
-3825 51 -213 222 -380 434 -424 74 -15 256 -11 441 10 22 2 72 7 110 10 39 4
88 9 110 11 22 3 60 7 85 9 25 3 61 7 80 10 19 3 55 8 80 11 25 3 56 7 70 9
14 2 45 7 70 10 25 3 83 12 130 20 47 8 103 17 125 21 22 3 119 21 215 41 96
19 186 37 200 39 14 3 45 10 70 15 25 6 52 12 60 14 8 2 56 13 105 25 50 12
97 23 105 25 33 7 289 78 350 96 36 11 72 22 80 24 21 4 99 29 301 96 253 84
491 173 729 274 114 48 151 65 290 127 25 11 140 67 255 124 196 97 284 142
428 222 31 18 83 46 115 63 31 18 69 40 84 50 14 11 28 19 31 19 20 0 594 370
717 462 14 10 112 83 218 162 413 307 719 572 1102 956 229 229 360 367 490
520 40 47 87 101 104 120 24 27 208 256 329 410 89 113 391 546 477 685 14 21
32 51 41 65 48 75 231 385 264 445 21 39 58 106 82 150 45 82 250 496 296 595
247 542 456 1139 605 1735 61 244 64 258 67 368 6 251 -117 490 -331 643 -73
52 -148 87 -252 116 l-77 22 -4215 0 c-2318 1 -4243 -2 -4278 -6z"/>
</g>
</svg>
